<?xml version="1.0" encoding="UTF-8"?>
<!--!
Font Awesome Pro 6.2.0 by @fontawesome - https://fontawesome.com
License - https://fontawesome.com/license (Commercial License)
Copyright 2023 Fonticons, Inc.
-->
<svg xmlns="http://www.w3.org/2000/svg" style="display: none;">
  <defs><style>.fa-secondary { opacity:.4; }</style></defs>
  <symbol id="campground" viewBox="0 0 576 512">
    <path d="M576 448V464C576 490.5 554.5 512 528 512H48C21.49 512 0 490.5 0 464V448H576z" class="fa-secondary"></path><path d="M371.1 7.013C385.8 18.05 388 38.19 376.1 51.99L328.1 112L563.7 405.4C571.7 415.4 576 427.7 576 440.4V448H407.5L288 291.7L168.5 448H0V440.4C0 427.7 4.328 415.4 12.27 405.4L247 112L199 51.99C187.1 38.19 190.2 18.05 204 7.013C217.8-4.027 237.9-1.789 248.1 12.01L288 60.78L327 12.01C338.1-1.789 358.2-4.027 371.1 7.013V7.013zM528.3 512C528.2 512 528.1 512 528 512H48C47.89 512 47.78 512 47.66 512H528.3z" class="fa-primary"></path>
  </symbol>
  <symbol id="house-tree" viewBox="0 0 640 512">
    <path d="M566.6 137.4C575.8 146.5 578.5 160.3 573.6 172.2C568.6 184.2 556.9 192 544 192H514.6L600.1 300C608.7 309.6 610.2 322.8 604.8 333.9C599.5 344.1 588.3 352 576 352H546.6L632.1 460C640.7 469.6 642.2 482.8 636.8 493.9C631.5 504.1 620.3 512 608 512H400C410 498.6 416 482 416 464V277.1C416 254.7 406.6 233.3 390.1 218.1L282.9 119.9L393.4 9.372C405.9-3.124 426.1-3.124 438.6 9.372L566.6 137.4z" class="fa-secondary"></path><path d="M.0003 464V277.1C.0003 263.7 5.647 250.8 15.57 241.7L159.6 109.7C177.9 92.91 206.1 92.91 224.4 109.7L368.4 241.7C378.4 250.8 384 263.7 384 277.1V464C384 490.5 362.5 512 336 512H48C21.49 512 0 490.5 0 464H.0003zM168 272C154.7 272 144 282.7 144 296V344C144 357.3 154.7 368 168 368H216C229.3 368 240 357.3 240 344V296C240 282.7 229.3 272 216 272H168z" class="fa-primary"></path>
  </symbol>
  <symbol id="notdef" viewBox="0 0 384 512">
    <path d="M64 390.3L153.5 256L64 121.7V64h38.46L192 198.3L281.5 64H320v57.69L230.5 256L320 390.3V448h-38.46L192 313.7L102.5 448H64V390.3z" class="fa-secondary"></path><path d="M336 0h-288C21.49 0 0 21.49 0 48v416C0 490.5 21.49 512 48 512h288c26.51 0 48-21.49 48-48v-416C384 21.49 362.5 0 336 0zM320 448H64V64h256V448z" class="fa-primary"></path>
  </symbol>
</svg>
