<?xml version="1.0" encoding="UTF-8"?>
<!--!
Font Awesome Pro 6.2.0 by @fontawesome - https://fontawesome.com
License - https://fontawesome.com/license (Commercial License)
Copyright 2023 Fonticons, Inc.
-->
<svg xmlns="http://www.w3.org/2000/svg" style="display: none;">
  <symbol id="campground" viewBox="0 0 576 512">
    <path d="M375.4 5.587C385.6 14.09 386.9 29.22 378.4 39.39L319.3 110.1L554.1 392.1C563.4 402.1 568 414.8 568 427.1V456C568 486.9 542.9 512 512 512H64C33.07 512 8 486.9 8 456V427.1C8 414.8 12.61 402.1 21.04 392.1L256.7 110.1L197.6 39.39C189.1 29.22 190.4 14.09 200.6 5.587C210.8-2.914 225.9-1.562 234.4 8.608L288 72.71L341.6 8.608C350.1-1.562 365.2-2.914 375.4 5.587V5.587zM56 427.1V456C56 460.4 59.58 464 64 464H126L269.1 281.2C273.6 275.4 280.6 272 288 272C295.4 272 302.4 275.4 306.9 281.2L449.1 464H512C516.4 464 520 460.4 520 456V427.1C520 426.1 519.3 424.3 518.1 422.8L288 147.5L57.86 422.8C56.66 424.3 56 426.1 56 427.1V427.1zM186.1 464H389L288 334.9L186.1 464z"></path>
  </symbol>
  <symbol id="tree" viewBox="0 0 448 512">
    <path d="M434.7 357.9l-35.73-41.22c6.688-4.938 12.17-11.53 15.84-19.47c8.297-17.88 5.516-38.34-7.297-53.53l-31.03-36.44c4.578-4.156 8.297-9.25 10.84-15.03c6.922-15.75 3.875-33.53-7.938-46.38l-120.4-130.8C250.1 5.469 237.4 0 224 0S197.9 5.5 189.1 15.03L68.77 145.8C56.97 158.7 53.94 176.5 60.86 192.2C63.39 198 67.09 203.1 71.66 207.2L40.5 243.8C27.75 258.9 24.98 279.4 33.28 297.2C36.97 305.2 42.44 311.8 49.11 316.7l-35.7 41.22c-14.22 16.38-17.44 38.84-8.406 58.63C13.86 435.9 32.47 448 53.58 448h146.7l.0391 40.03C200.3 501.3 210.9 512 224.1 512c0 0-.0156 0 0 0c13.25 0 24.2-10.78 24.18-24.03L248.3 448h146.1c21.11 0 39.73-12.06 48.59-31.47C452 396.7 448.8 374.3 434.7 357.9zM399.3 396.6C398.3 398.8 396.6 400 394.4 400h-146.2l-.0215-22.25l40.78-40.78c9.375-9.375 9.375-24.56 0-33.94s-24.56-9.375-33.94 0l-6.908 6.908L248 183.1c-.0156-13.25-10.75-23.97-24-23.97c0 0 .0156 0 0 0c-13.25 0-24.01 10.79-23.1 24.04l.0449 46.08L192.1 223c-9.375-9.375-24.56-9.375-33.94 0s-9.375 24.56 0 33.94L200.1 298L200.2 400H53.58c-2.234 0-3.875-1.125-4.906-3.375c-.6875-1.5-1.469-4.438 1-7.281l96.02-110.8H79.55l85.66-107.2H110.4L223.6 47.53l114 123.9h-54.72l85.56 107.2h-66.13l96.02 110.8C400.8 392.1 400 395.1 399.3 396.6z"></path>
  </symbol>
  <symbol id="star" viewBox="0 0 576 512">
    <path d="M287.9 0C297.1 0 305.5 5.25 309.5 13.52L378.1 154.8L531.4 177.5C540.4 178.8 547.8 185.1 550.7 193.7C553.5 202.4 551.2 211.9 544.8 218.2L433.6 328.4L459.9 483.9C461.4 492.9 457.7 502.1 450.2 507.4C442.8 512.7 432.1 513.4 424.9 509.1L287.9 435.9L150.1 509.1C142.9 513.4 133.1 512.7 125.6 507.4C118.2 502.1 114.5 492.9 115.1 483.9L142.2 328.4L31.11 218.2C24.65 211.9 22.36 202.4 25.2 193.7C28.03 185.1 35.5 178.8 44.49 177.5L197.7 154.8L266.3 13.52C270.4 5.249 278.7 0 287.9 0L287.9 0zM287.9 78.95L235.4 187.2C231.9 194.3 225.1 199.3 217.3 200.5L98.98 217.9L184.9 303C190.4 308.5 192.9 316.4 191.6 324.1L171.4 443.7L276.6 387.5C283.7 383.7 292.2 383.7 299.2 387.5L404.4 443.7L384.2 324.1C382.9 316.4 385.5 308.5 391 303L476.9 217.9L358.6 200.5C350.7 199.3 343.9 194.3 340.5 187.2L287.9 78.95z"></path>
  </symbol>
  <symbol id="house-water" viewBox="0 0 576 512">
    <path d="M24.02 271.1c5.492 0 11.01-1.871 15.52-5.684L64 245.5v106.5c0 13.25 10.75 24 24 24s24-10.75 24-24V207.1c0-.9629-.4375-1.783-.5488-2.717L288 55.46l175.1 149.4v147.2c0 13.25 10.75 24 24 24s24-10.75 24-24V245.5l24.47 20.77c4.531 3.812 10.03 5.688 15.53 5.688c10.13 0 23.1-7.988 23.1-23.98c0-6.809-2.877-13.57-8.467-18.33l-263.1-224c-4.469-3.781-9.999-5.67-15.53-5.67c-5.531 0-11.07 1.889-15.53 5.67L8.473 229.7c-5.592 4.76-8.469 11.52-8.469 18.33C.0039 264.1 13.87 271.1 24.02 271.1zM556.2 464.2c-47.49-8.484-53.88-40.21-76.2-40.21c-22.92 0-33.77 39.83-95.1 39.83c-62.23 0-73.08-39.83-96-39.83c-22.92 0-33.77 39.83-95.1 39.83c-69.59 0-81.1-39.83-103.1-39.83c-21.95 0-30.18 33.43-68.2 40.21c-11.62 2.066-19.8 12.22-19.8 23.67c0 12.26 9.656 24.12 23.94 24.12c7.637 0 35.43-4.889 65.27-31.81c28 19.74 66.33 31.69 103.1 31.69c34.89 0 68.48-11.41 95.67-32.06c27.19 20.65 61.6 30.98 96.01 30.98c34.32 0 68.63-10.27 95.78-30.82c30.6 24.3 63.21 32.03 72.23 32.03c11.94 0 23.97-9.596 23.97-24.12C575.1 476.4 567.8 466.3 556.2 464.2zM248 175.1c-22.06 0-39.1 17.94-39.1 40v80c0 22.06 17.94 40 39.1 40h80c22.06 0 40-17.94 40-40v-80c0-22.06-17.94-40-40-40H248zM320 287.1H256v-64h64V287.1z"></path>
  </symbol>
  <symbol id="gear" viewBox="0 0 512 512">
    <path d="M160 256C160 202.1 202.1 160 256 160C309 160 352 202.1 352 256C352 309 309 352 256 352C202.1 352 160 309 160 256zM256 208C229.5 208 208 229.5 208 256C208 282.5 229.5 304 256 304C282.5 304 304 282.5 304 256C304 229.5 282.5 208 256 208zM293.1 .0003C315.3 .0003 334.6 15.19 339.8 36.74L347.6 69.21C356.1 73.36 364.2 78.07 371.9 83.28L404 73.83C425.3 67.56 448.1 76.67 459.2 95.87L496.3 160.1C507.3 179.3 503.8 203.6 487.8 218.9L463.5 241.1C463.8 246.6 464 251.3 464 256C464 260.7 463.8 265.4 463.5 270L487.8 293.1C503.8 308.4 507.3 332.7 496.3 351.9L459.2 416.1C448.1 435.3 425.3 444.4 404 438.2L371.9 428.7C364.2 433.9 356.1 438.6 347.6 442.8L339.8 475.3C334.6 496.8 315.3 512 293.1 512H218.9C196.7 512 177.4 496.8 172.2 475.3L164.4 442.8C155.9 438.6 147.8 433.9 140.1 428.7L107.1 438.2C86.73 444.4 63.94 435.3 52.85 416.1L15.75 351.9C4.66 332.7 8.168 308.4 24.23 293.1L48.47 270C48.16 265.4 48 260.7 48 255.1C48 251.3 48.16 246.6 48.47 241.1L24.23 218.9C8.167 203.6 4.66 179.3 15.75 160.1L52.85 95.87C63.94 76.67 86.73 67.56 107.1 73.83L140.1 83.28C147.8 78.07 155.9 73.36 164.4 69.21L172.2 36.74C177.4 15.18 196.7 0 218.9 0L293.1 .0003zM205.5 103.6L194.3 108.3C181.6 113.6 169.8 120.5 159.1 128.7L149.4 136.1L94.42 119.9L57.31 184.1L98.81 223.6L97.28 235.6C96.44 242.3 96 249.1 96 256C96 262.9 96.44 269.7 97.28 276.4L98.81 288.4L57.32 327.9L94.42 392.1L149.4 375.9L159.1 383.3C169.8 391.5 181.6 398.4 194.3 403.7L205.5 408.4L218.9 464H293.1L306.5 408.4L317.7 403.7C330.4 398.4 342.2 391.5 352.9 383.3L362.6 375.9L417.6 392.1L454.7 327.9L413.2 288.4L414.7 276.4C415.6 269.7 416 262.9 416 256C416 249.1 415.6 242.3 414.7 235.6L413.2 223.6L454.7 184.1L417.6 119.9L362.6 136.1L352.9 128.7C342.2 120.5 330.4 113.6 317.7 108.3L306.5 103.6L293.1 48H218.9L205.5 103.6z"></path>
  </symbol>
  <symbol id="house-tree" viewBox="0 0 640 512">
    <path d="M569.4 167.5C576 174.4 577.8 184.7 574.1 193.5C570.3 202.3 561.6 208 552 208H503.7L601.4 311.5C608 318.5 609.8 328.7 606 337.5C602.2 346.3 593.6 352 584 352H531.9L634.3 472.5C640.3 479.6 641.7 489.6 637.8 498.1C633.9 506.6 625.4 512 616 512H400C410 498.6 416 482 416 464H564.1L461.7 343.5C455.7 336.4 454.3 326.4 458.2 317.9C462.1 309.4 470.6 304 480 304H528.3L430.6 200.5C423.1 193.5 422.2 183.3 425.1 174.5C429.8 165.7 438.4 160 448 160H496.1L400 58.85L314.5 148.9L279.1 116.4L382.6 7.47C387.1 2.7 393.4 0 400 0C406.6 0 412.9 2.7 417.4 7.47L569.4 167.5zM144 295.1C144 282.7 154.7 271.1 168 271.1H216C229.3 271.1 240 282.7 240 295.1V344C240 357.3 229.3 368 216 368H168C154.7 368 144 357.3 144 344V295.1zM148.8 119.6C173.2 97.21 210.8 97.21 235.2 119.6L363.2 236.1C376.5 249.1 384 266.2 384 284.2V448C384 483.3 355.3 512 320 512H64C28.65 512 0 483.3 0 448V284.2C0 266.2 7.529 249.1 20.75 236.1L148.8 119.6zM48 284.2V448C48 456.8 55.16 464 64 464H320C328.8 464 336 456.8 336 448V284.2C336 279.7 334.1 275.4 330.8 272.4L202.8 155C196.7 149.4 187.3 149.4 181.2 155L53.19 272.4C49.88 275.4 48 279.7 48 284.2V284.2z"></path>
  </symbol>
  <symbol id="spinner" viewBox="0 0 512 512">
    <path d="M288 32C288 49.67 273.7 64 256 64C238.3 64 224 49.67 224 32C224 14.33 238.3 0 256 0C273.7 0 288 14.33 288 32zM288 480C288 497.7 273.7 512 256 512C238.3 512 224 497.7 224 480C224 462.3 238.3 448 256 448C273.7 448 288 462.3 288 480zM480 224C497.7 224 512 238.3 512 256C512 273.7 497.7 288 480 288C462.3 288 448 273.7 448 256C448 238.3 462.3 224 480 224zM32 288C14.33 288 0 273.7 0 256C0 238.3 14.33 224 32 224C49.67 224 64 238.3 64 256C64 273.7 49.67 288 32 288zM74.98 391.8C87.48 379.3 107.7 379.3 120.2 391.8C132.7 404.3 132.7 424.5 120.2 437C107.7 449.5 87.48 449.5 74.98 437C62.48 424.5 62.48 404.3 74.98 391.8zM391.8 437C379.3 424.5 379.3 404.3 391.8 391.8C404.3 379.3 424.5 379.3 437 391.8C449.5 404.3 449.5 424.5 437 437C424.5 449.5 404.3 449.5 391.8 437zM120.2 74.98C132.7 87.48 132.7 107.7 120.2 120.2C107.7 132.7 87.48 132.7 74.98 120.2C62.48 107.7 62.48 87.48 74.98 74.98C87.48 62.49 107.7 62.49 120.2 74.98z"></path>
  </symbol>
  <symbol id="gears" viewBox="0 0 640 512">
    <path d="M119.1 176C119.1 153.9 137.9 136 159.1 136C182.1 136 199.1 153.9 199.1 176C199.1 198.1 182.1 216 159.1 216C137.9 216 119.1 198.1 119.1 176zM207.3 23.36L213.9 51.16C223.4 55.3 232.4 60.5 240.6 66.61L267.7 58.52C273.2 56.85 279.3 58.3 283.3 62.62C299.5 80.44 311.9 101.8 319.3 125.4C321.1 130.9 319.3 136.9 315.1 140.9L294.1 160C295.7 165.5 295.1 171.1 295.1 176.8C295.1 181.1 295.7 187.1 295.2 192.1L315.1 211.1C319.3 215.1 321.1 221.1 319.3 226.6C311.9 250.2 299.5 271.6 283.3 289.4C279.3 293.7 273.2 295.2 267.7 293.5L242.1 285.8C233.3 292.5 223.7 298.1 213.5 302.6L207.3 328.6C205.1 334.3 201.7 338.8 196 340.1C184.4 342.6 172.4 344 159.1 344C147.6 344 135.6 342.6 123.1 340.1C118.3 338.8 114 334.3 112.7 328.6L106.5 302.6C96.26 298.1 86.67 292.5 77.91 285.8L52.34 293.5C46.75 295.2 40.65 293.7 36.73 289.4C20.5 271.6 8.055 250.2 .6513 226.6C-1.078 221.1 .6929 215.1 4.879 211.1L24.85 192.1C24.29 187.1 24 181.1 24 176.8C24 171.1 24.34 165.5 25.01 160L4.879 140.9C.6936 136.9-1.077 130.9 .652 125.4C8.056 101.8 20.51 80.44 36.73 62.62C40.65 58.3 46.75 56.85 52.34 58.52L79.38 66.61C87.62 60.5 96.57 55.3 106.1 51.17L112.7 23.36C114 17.71 118.3 13.17 123.1 11.91C135.6 9.35 147.6 8 159.1 8C172.4 8 184.4 9.35 196 11.91C201.7 13.16 205.1 17.71 207.3 23.36L207.3 23.36zM63.1 176.8C63.1 180.5 64.21 184.1 64.6 187.7L66.79 207.4L44.25 228.9C47.68 236.5 51.84 243.7 56.63 250.4L85.96 241.7L102.2 254C108.4 258.7 115.1 262.7 122.3 265.8L140.8 273.8L147.8 303.4C151.8 303.8 155.9 304 159.1 304C164.1 304 168.2 303.8 172.2 303.4L179.2 273.8L197.7 265.8C204.9 262.7 211.6 258.7 217.8 254L234 241.7L263.4 250.4C268.2 243.7 272.3 236.5 275.7 228.9L253.2 207.4L255.4 187.7C255.8 184.1 255.1 180.5 255.1 176.8C255.1 172.7 255.8 168.7 255.3 164.8L252.9 144.9L275.7 123.1C272.3 115.5 268.2 108.3 263.4 101.6L232.9 110.7L216.8 98.74C210.1 94.42 204.7 90.76 197.1 87.85L179.6 79.87L172.2 48.58C168.2 48.2 164.1 48 159.1 48C155.9 48 151.8 48.2 147.8 48.58L140.4 79.87L122 87.85C115.3 90.76 109 94.42 103.2 98.74L87.1 110.7L56.63 101.6C51.84 108.3 47.68 115.5 44.25 123.1L67.14 144.9L64.72 164.8C64.25 168.7 63.1 172.7 63.1 176.8L63.1 176.8zM464 312C486.1 312 504 329.9 504 352C504 374.1 486.1 392 464 392C441.9 392 424 374.1 424 352C424 329.9 441.9 312 464 312zM581.5 244.3L573.4 271.4C579.5 279.6 584.7 288.6 588.8 298.1L616.6 304.7C622.3 306 626.8 310.3 628.1 315.1C630.6 327.6 632 339.6 632 352C632 364.4 630.6 376.4 628.1 388C626.8 393.7 622.3 397.1 616.6 399.3L588.8 405.9C584.7 415.4 579.5 424.4 573.4 432.6L581.5 459.7C583.2 465.3 581.7 471.4 577.4 475.3C559.6 491.5 538.2 503.9 514.6 511.4C509.1 513.1 503.1 511.3 499.1 507.1L479.1 486.1C474.5 487.7 468.9 488 463.2 488C458 488 452.9 487.7 447.9 487.2L428.9 507.1C424.9 511.3 418.9 513.1 413.4 511.4C389.8 503.9 368.4 491.5 350.6 475.3C346.3 471.4 344.8 465.3 346.5 459.7L354.2 434.1C347.5 425.3 341.9 415.7 337.4 405.5L311.4 399.3C305.7 397.1 301.2 393.7 299.9 388C297.3 376.4 295.1 364.4 295.1 352C295.1 339.6 297.4 327.6 299.9 315.1C301.2 310.3 305.7 306 311.4 304.7L337.4 298.5C341.9 288.3 347.5 278.7 354.2 269.9L346.5 244.3C344.8 238.8 346.3 232.7 350.6 228.7C368.4 212.5 389.8 200.1 413.4 192.7C418.9 190.9 424.9 192.7 428.9 196.9L447.9 216.9C452.9 216.3 458 216 463.2 216C468.9 216 474.5 216.4 479.1 217L499.1 196.9C503.1 192.7 509.1 190.9 514.6 192.7C538.2 200.1 559.6 212.5 577.4 228.7C581.7 232.7 583.2 238.8 581.5 244.3V244.3zM463.2 256C459.5 256 455.9 256.2 452.3 256.6L432.6 258.8L411.1 236.3C403.5 239.7 396.3 243.8 389.6 248.6L398.3 277.1L385.1 294.2C381.3 300.4 377.3 307.1 374.2 314.3L366.2 332.8L336.6 339.8C336.2 343.8 336 347.9 336 352C336 356.1 336.2 360.2 336.6 364.2L366.2 371.2L374.2 389.7C377.3 396.9 381.3 403.6 385.1 409.8L398.3 426L389.6 455.4C396.3 460.2 403.5 464.3 411.1 467.8L432.6 445.2L452.3 447.4C455.9 447.8 459.5 448 463.2 448C467.3 448 471.3 447.8 475.2 447.3L495.1 444.9L516.9 467.8C524.5 464.3 531.7 460.2 538.4 455.4L529.3 424.9L541.3 408.8C545.6 402.1 549.2 396.7 552.2 389.1L560.1 371.6L591.4 364.2C591.8 360.2 592 356.1 592 352C592 347.9 591.8 343.8 591.4 339.8L560.1 332.4L552.2 314C549.2 307.4 545.6 301 541.3 295.2L529.3 279.1L538.4 248.6C531.7 243.8 524.5 239.7 516.9 236.3L495.1 259.1L475.2 256.7C471.3 256.3 467.3 256 463.2 256V256z"></path>
  </symbol>
  <symbol id="sun-bright" viewBox="0 0 512 512">
    <path d="M256 144C194.1 144 144 194.1 144 256c0 61.86 50.14 112 112 112s112-50.14 112-112C368 194.1 317.9 144 256 144zM256 320c-35.29 0-64-28.71-64-64c0-35.29 28.71-64 64-64s64 28.71 64 64C320 291.3 291.3 320 256 320zM256 112c13.25 0 24-10.75 24-24v-64C280 10.75 269.3 0 256 0S232 10.75 232 24v64C232 101.3 242.8 112 256 112zM256 400c-13.25 0-24 10.75-24 24v64C232 501.3 242.8 512 256 512s24-10.75 24-24v-64C280 410.8 269.3 400 256 400zM488 232h-64c-13.25 0-24 10.75-24 24s10.75 24 24 24h64C501.3 280 512 269.3 512 256S501.3 232 488 232zM112 256c0-13.25-10.75-24-24-24h-64C10.75 232 0 242.8 0 256s10.75 24 24 24h64C101.3 280 112 269.3 112 256zM391.8 357.8c-9.344-9.375-24.56-9.372-33.94 .0031s-9.375 24.56 0 33.93l45.25 45.28c4.672 4.688 10.83 7.031 16.97 7.031s12.28-2.344 16.97-7.031c9.375-9.375 9.375-24.56 0-33.94L391.8 357.8zM120.2 154.2c4.672 4.688 10.83 7.031 16.97 7.031S149.5 158.9 154.2 154.2c9.375-9.375 9.375-24.56 0-33.93L108.9 74.97c-9.344-9.375-24.56-9.375-33.94 0s-9.375 24.56 0 33.94L120.2 154.2zM374.8 161.2c6.141 0 12.3-2.344 16.97-7.031l45.25-45.28c9.375-9.375 9.375-24.56 0-33.94s-24.59-9.375-33.94 0l-45.25 45.28c-9.375 9.375-9.375 24.56 0 33.93C362.5 158.9 368.7 161.2 374.8 161.2zM120.2 357.8l-45.25 45.28c-9.375 9.375-9.375 24.56 0 33.94c4.688 4.688 10.83 7.031 16.97 7.031s12.3-2.344 16.97-7.031l45.25-45.28c9.375-9.375 9.375-24.56 0-33.93S129.6 348.4 120.2 357.8z"></path>
  </symbol>
  <symbol id="dog" viewBox="0 0 576 512">
    <path d="M448 112C448 120.8 440.8 128 432 128C423.2 128 416 120.8 416 112C416 103.2 423.2 96 432 96C440.8 96 448 103.2 448 112zM64.23 220.2C63.13 219.8 62.05 219.5 60.97 219.1C33.58 209.5 11.94 186.7 4.597 157.3L.7168 141.8C-2.498 128.1 5.32 115.9 18.18 112.7C31.04 109.5 44.07 117.3 47.28 130.2L51.16 145.7C55.62 163.5 71.62 176 89.97 176H290.7L317.5 14.89C318.1 6.296 326.4 0 335.1 0C340.7 0 345.1 2.64 349.3 7.126L368 32H444.1C456.8 32 469.1 37.06 478.1 46.06L496 64H528C554.5 64 576 85.49 576 112V144C576 197 533 240 480 240H434.7L432 255.1V448C432 483.3 403.3 512 368 512H352C316.7 512 288 483.3 288 448V379.6C277.6 381.9 266.9 383.4 256 383.8C253.3 383.9 250.7 384 248 384C245.3 384 242.7 383.9 240 383.8C229.1 383.4 218.4 381.9 208 379.6V448C208 483.3 179.3 512 144 512H128C92.65 512 64 483.3 64 448V224C64 222.7 64.08 221.4 64.23 220.2H64.23zM336 319.8V448C336 456.8 343.2 464 352 464H368C376.8 464 384 456.8 384 448V274.3L302.2 224H112.1L112 224.9V448C112 456.8 119.2 464 128 464H144C152.8 464 160 456.8 160 448V319.8L218.4 332.8C227.9 334.9 237.8 336 248 336C258.2 336 268.1 334.9 277.6 332.8L336 319.8zM337.1 189.1L389.1 221.1L394 192H480C506.5 192 528 170.5 528 144V112H476.1L444.1 80H355.3L337.1 189.1z"></path>
  </symbol>
  <symbol id="notdef" viewBox="0 0 384 512">
    <path d="M336 0h-288C21.49 0 0 21.49 0 48v416C0 490.5 21.49 512 48 512h288c26.51 0 48-21.49 48-48v-416C384 21.49 362.5 0 336 0zM336 90.16V421.8L221.2 256L336 90.16zM192 213.8L77.19 48h229.6L192 213.8zM162.8 256L48 421.8V90.16L162.8 256zM192 298.2L306.8 464H77.19L192 298.2z"></path>
  </symbol>
</svg>
